<?xml version="1.0" standalone="no"?><!DOCTYPE svg PUBLIC "-//W3C//DTD SVG 1.1//EN" "http://www.w3.org/Graphics/SVG/1.1/DTD/svg11.dtd"><svg t="1681555698108" class="icon" viewBox="0 0 1152 1024" version="1.1" xmlns="http://www.w3.org/2000/svg" p-id="3950" xmlns:xlink="http://www.w3.org/1999/xlink" width="225" height="200"><path d="M1151.84 153.2c-0.02-16.26-6.04-31.74-17.16-43.6-7.56-8.06-17.16-18.24-27.38-29 22.12-13.68 39-34.98 44.36-61.32C1153.7 9.36 1145.92 0 1135.8 0H895.84c-141.38 0-256 114.62-256 256H320c-57.68 0-108.8 25.96-144 66.22V320c-97.06 0-176 78.94-176 176v112c0 17.68 14.32 32 32 32h32c17.68 0 32-14.32 32-32v-112c0-26.44 13.74-48.78 33.56-63.36-0.42 5.16-1.56 10.1-1.56 15.36 0 55.28 23.68 104.72 61.08 139.76l-51.44 137.2a127.89 127.89 0 0 0-4.32 75.98l49.7 198.82A31.964 31.964 0 0 0 214.04 1024h131.92c20.82 0 36.1-19.56 31.04-39.76l-52.62-210.52 47.68-127.18L640 691.2V992c0 17.68 14.32 32 32 32h128c17.68 0 32-14.32 32-32V636.44c39.48-40.38 64-95.5 64-156.44 0-0.44-0.14-0.84-0.16-1.28V273.78l32 14.22 37.8 75.4c14.9 29.74 50.1 43.1 80.98 30.74l65.1-26.04a63.994 63.994 0 0 0 40.24-59.48l-0.12-155.42z m-128 38.8c-17.68 0-32-14.32-32-32s14.32-32 32-32 32 14.32 32 32-14.32 32-32 32z" p-id="3951"></path></svg>