<?xml version="1.0" standalone="no"?><!DOCTYPE svg PUBLIC "-//W3C//DTD SVG 1.1//EN" "http://www.w3.org/Graphics/SVG/1.1/DTD/svg11.dtd"><svg t="1681555994480" class="icon" viewBox="0 0 1024 1024" version="1.1" xmlns="http://www.w3.org/2000/svg" p-id="6213" xmlns:xlink="http://www.w3.org/1999/xlink" width="200" height="200"><path d="M600.6784 835.1744H534.528l60.2112-256h-260.096L210.5344 827.392H144.7936l2.8672-12.4928c0.4096-2.048 46.8992-202.9568 46.8992-309.0432 0-5.7344 4.5056-10.24 10.24-10.24s10.24 4.5056 10.24 10.24c0 94.208-34.2016 254.7712-44.4416 301.056h27.4432l124.1088-248.2176H620.544l-60.2112 256h26.8288c20.6848-47.104 154.4192-352.256 197.0176-451.584l0.8192-1.8432 1.4336-1.4336c10.24-10.24 19.8656-9.216 24.7808-7.5776 23.3472 7.7824 34.4064 61.2352 38.2976 84.992 8.3968 2.8672 27.2384 7.5776 45.6704-0.6144 22.1184-37.0688 16.5888-128.6144 12.4928-161.3824l-0.6144-4.096 36.6592-48.9472H841.728c-45.056 0-72.704 13.312-118.5792 56.5248l-0.2048 0.2048-127.1808 113.8688H280.576c-0.6144 0-58.5728-5.9392-95.8464 27.648-21.504 19.2512-32.3584 48.3328-32.3584 86.2208 0 57.344-12.9024 95.0272-38.0928 112.0256-25.1904 16.9984-52.4288 6.3488-53.6576 5.9392-5.3248-2.048-7.7824-7.9872-5.7344-13.312s7.9872-7.7824 13.312-5.7344c0.6144 0.2048 18.6368 6.9632 34.6112-4.096 18.8416-12.9024 28.8768-45.8752 28.8768-95.0272 0-44.032 13.312-78.2336 39.3216-101.5808 42.5984-38.0928 103.8336-33.3824 111.0016-32.768h305.5616l121.2416-108.544c49.152-46.4896 82.5344-62.0544 132.5056-62.0544h142.9504l-56.32 75.1616c2.4576 22.7328 12.288 128.8192-17.6128 173.4656l-1.4336 2.2528-2.4576 1.2288c-35.0208 17.6128-69.8368 0.8192-71.2704 0l-4.7104-2.4576-0.8192-5.3248c0-0.2048-2.8672-19.8656-8.3968-39.3216-9.216-32.5632-16.9984-35.0208-16.9984-35.0208s-0.8192 0-2.4576 1.4336c-46.8992 109.568-197.4272 452.4032-198.8608 455.8848l-2.2528 6.3488z" fill="" p-id="6214"></path><path d="M447.2832 827.392H382.976l-54.8864-185.5488c-1.6384-5.3248 1.4336-11.0592 6.9632-12.6976 5.3248-1.6384 11.0592 1.4336 12.6976 6.9632l50.3808 170.8032h28.672V584.2944c0-5.7344 4.5056-10.24 10.24-10.24s10.24 4.5056 10.24 10.24V827.392zM786.6368 780.6976h-64.9216L720.896 614.4c0-5.7344 4.5056-10.24 10.24-10.24 5.5296 0 10.24 4.5056 10.24 10.24l0.8192 145.8176h28.0576l43.4176-202.5472-56.7296-42.8032c-4.5056-3.4816-5.3248-9.8304-2.048-14.336 3.4816-4.5056 9.8304-5.3248 14.336-2.048l67.3792 50.5856-49.9712 231.6288zM64.7168 567.5008c-9.8304 0-18.8416-4.3008-20.0704-4.9152-5.12-2.4576-7.168-8.6016-4.5056-13.7216 2.4576-5.12 8.6016-7.168 13.7216-4.5056 4.096 2.048 11.4688 3.8912 14.1312 2.2528 1.024-0.6144 2.2528-3.2768 2.2528-8.6016 0-71.0656 15.7696-120.2176 46.6944-146.6368 27.648-23.552 57.1392-19.0464 58.368-18.8416 5.5296 0.8192 9.4208 6.144 8.3968 11.6736-0.8192 5.5296-6.144 9.4208-11.6736 8.3968-0.8192-0.2048-21.9136-3.072-42.1888 14.5408-25.6 21.9136-39.1168 67.1744-39.1168 130.6624 0 15.36-6.5536 22.7328-11.8784 26.0096-4.7104 2.6624-9.4208 3.6864-14.1312 3.6864z" fill="" p-id="6215"></path><path d="M863.4368 297.3696m-15.1552 0a15.1552 15.1552 0 1 0 30.3104 0 15.1552 15.1552 0 1 0-30.3104 0Z" fill="" p-id="6216"></path></svg>