<?xml version="1.0" standalone="no"?><!DOCTYPE svg PUBLIC "-//W3C//DTD SVG 1.1//EN" "http://www.w3.org/Graphics/SVG/1.1/DTD/svg11.dtd"><svg t="1681555772598" class="icon" viewBox="0 0 1024 1024" version="1.1" xmlns="http://www.w3.org/2000/svg" p-id="4821" xmlns:xlink="http://www.w3.org/1999/xlink" width="200" height="200"><path d="M744 128c-40.384 0-75.008 14.624-100 36-24.992 21.376-41.504 49.12-52.992 75.008-18.016 40.48-19.136 64.736-21.024 80-14.624 6.112-52.352 20.992-89.984 20.992-48.992 0-83.52-20-148-20-39.872 0-75.744 14.72-100.992 40.992a145.664 145.664 0 0 0-7.008 8 134.88 134.88 0 0 0-36-4.992c-22.624 0-42.752 11.264-58.016 26.016-15.232 14.72-26.496 33.12-36 54.976C75.04 488.736 64 545.376 64 608h64c0-55.136 9.76-104.256 24-136.992 7.136-16.384 15.264-28.384 22.016-35.008 6.72-6.624 11.232-8 13.984-8 4.384 0 6.016 0.64 8.992 0.992-2.496 11.648-4.992 23.52-4.992 36 0 76.384 46.112 122.624 63.008 138.016-0.128 12.128-1.376 49.856-25.024 81.984l-5.984 8V896h64v-188c33.504-56.992 32-119.008 32-119.008L319.008 576l-10.016-8.992S256 517.504 256 464.96c0-27.36 8.512-47.008 20.992-60 12.48-12.992 29.632-20.992 55.008-20.992 49.28 0 83.744 20 148 20 67.616 0 130.016-32 130.016-32l16-8 1.984-18.016s3.264-40.96 20.992-80.96c8.896-20.032 21.888-39.136 37.024-52.032 13.344-11.52 28.736-19.52 49.984-20.992v32c48.256 0 67.008 44.992 67.008 44.992l1.984 4.992 4 5.024L864 332.992l-6.016 7.008c-14.08-3.744-30.08-7.744-36.992-10.016l-10.976-3.968-11.008 3.968c-0.64 0.256-19.008 4.64-33.024 2.016-13.984-2.624-24.352-6.112-32-27.008l-60 22.016c4.896 13.376 11.776 24.64 20 33.984-2.88 14.88-2.624 29.376-0.96 43.008 3.488 30.4 10.976 59.264 10.976 83.008 0 41.376-51.008 84-51.008 84l-12.992 9.984V896h64v-284.992c18.016-13.888 64-53.632 64-124 0-35.392-8.384-66.752-11.008-90.016-0.128-0.736 0.128-1.248 0-1.984 20.16 3.232 33.888-0.512 48-4 19.008 5.856 55.008 16 55.008 16l19.008 4.992 12.992-15.008 20.992-23.008c21.632-24 20.896-61.12-1.984-83.968l-56-57.024-1.024 1.024c-4.992-9.92-21.12-39.392-53.984-58.016V128zM384 544v32c0 78.624-52 119.008-52 119.008L320 704v192h64v-164.992c13.376-12.64 40.128-43.264 55.008-103.008 22.624 10.112 58.112 17.12 104.992 20V896h64v-308.992h-32c-64.992 0-99.008-10.144-115.008-18.016A44.352 44.352 0 0 1 448 560l-7.008-16z" p-id="4822"></path></svg>