<?xml version="1.0" standalone="no"?><!DOCTYPE svg PUBLIC "-//W3C//DTD SVG 1.1//EN" "http://www.w3.org/Graphics/SVG/1.1/DTD/svg11.dtd"><svg t="1681635716771" class="icon" viewBox="0 0 1024 1024" version="1.1" xmlns="http://www.w3.org/2000/svg" p-id="6674" xmlns:xlink="http://www.w3.org/1999/xlink" width="200" height="200"><path d="M845.913043 489.73913c0 134.92313-221.540174 244.869565-311.652173 244.869566v89.043478h155.826087c19.322435 0 44.521739 21.414957 44.521739 44.521739v111.304348c0 17.830957-26.690783 44.521739-44.521739 44.521739H311.652174c-17.830957 0-44.521739-26.690783-44.521739-44.521739v-111.304348c0-22.105043 23.507478-44.521739 44.521739-44.521739h155.826087v-89.043478c-87.885913 0-289.391304-111.616-289.391304-244.869566-101.977043-7.301565-178.086957-75.642435-178.086957-178.086956V178.086957c0-44.655304 22.127304-89.043478 66.782609-89.043479h111.304348V66.782609c0-44.655304 22.127304-66.782609 66.782608-66.782609h534.26087c44.655304 0 66.782609 22.127304 66.782608 66.782609v22.260869h89.043479c44.655304 0 89.043478 48.350609 89.043478 93.005913V311.652174c0 102.934261-76.8 171.497739-178.086957 178.086956zM178.086957 155.826087H89.043478c-8.993391 0-22.26087 13.267478-22.260869 22.26087v133.565217c0 66.137043 47.304348 103.357217 111.304348 111.304348V155.826087z m178.086956 734.608696c-8.993391 0-22.26087 13.267478-22.26087 22.260869v22.26087s15.60487 20.769391 29.317566 20.769391c58.368 0 224.345043 1.491478 282.334608 1.491478 13.534609 0 22.26087-22.26087 22.26087-22.260869v-22.26087c0-8.993391-13.267478-22.26087-22.26087-22.260869H356.173913zM779.130435 89.043478c0-8.993391-7.279304-21.882435-22.26087-22.260869H267.130435c-8.993391 0-22.26087 13.267478-22.26087 22.260869v333.913044c0 160.990609 119.140174 236.944696 255.755131 236.944695C635.458783 659.901217 779.130435 583.94713 779.130435 422.956522V89.043478z m178.086956 89.043479c0-8.993391-13.245217-22.26087-22.260869-22.26087h-89.043479v267.130435c64.022261-7.94713 111.304348-45.167304 111.304348-111.304348V178.086957zM622.124522 407.618783l18.031304 110.235826a24.264348 24.264348 0 0 1-35.661913 25.110261l-92.93913-51.289044-92.939131 51.289044a24.219826 24.219826 0 1 1-35.617391-25.06574l18.031304-110.235826-76.132174-77.957565a24.175304 24.175304 0 0 1 13.668174-40.759652l104.269913-15.872 46.859131-99.59513a24.197565 24.197565 0 0 1 43.809391 0l46.814609 99.59513 104.269913 15.872a24.153043 24.153043 0 0 1 13.668174 40.71513l-76.132174 77.957566z m-61.818435-88.731826a24.064 24.064 0 0 1-18.231652-13.579131l-30.408348-64.712348-30.430609 64.712348a24.130783 24.130783 0 0 1-18.231652 13.579131l-70.500174 10.77426 51.801044 52.958609c5.36487 5.498435 7.813565 13.200696 6.566956 20.747131l-11.976348 73.149217 61.017044-33.658435a24.130783 24.130783 0 0 1 23.440695 0l61.017044 33.658435-11.976348-73.149217a24.041739 24.041739 0 0 1 6.566957-20.747131l51.823304-52.958609-70.477913-10.77426z" fill="#787878" p-id="6675"></path></svg>